<svg width="180" height="167" viewBox="0 0 180 167" fill="none" xmlns="http://www.w3.org/2000/svg">
<path d="M108.358 23.8642C114.265 30.5185 108.494 41.1143 99.5192 49.1556C94.0877 50.6331 89.8609 54.0313 86.7031 57.6642L75.0958 49.7036C77.4414 34.3554 95.9173 14.9265 106.138 21.9356C106.948 22.4835 107.693 23.1337 108.355 23.871L108.358 23.8642ZM83.4291 62.367L71.6163 54.2594C53.4795 72.5733 79.672 84.8957 83.4291 62.367ZM43.9411 116.053C43.279 115.315 42.5342 114.665 41.7242 114.117C31.5035 107.108 13.0279 126.536 10.6825 141.885L22.2898 149.846C25.4475 146.213 29.6752 142.82 35.1056 141.336C44.0798 133.296 49.8515 122.7 43.9447 116.045L43.9411 116.053ZM19.011 154.556L7.19937 146.447C-10.9273 164.758 15.2605 177.083 19.0099 154.549L19.011 154.556ZM115.641 97.285C108.752 91.7826 99.3696 98.9478 92.7273 109.199C91.8985 115.049 89.1399 119.842 86.0477 123.534L94.7698 134.893C108.992 130.824 125.377 109.41 117.699 99.4196C117.099 98.627 116.408 97.9135 115.644 97.2956L115.641 97.285ZM81.9534 127.468C61.108 133.763 75.4643 159.956 90.8284 139.01L81.9534 127.468ZM172.786 1.47866C164.862 -2.08962 157.549 7.34225 153.553 19.0649C154.14 24.9909 152.597 30.3911 150.508 34.7941L161.57 43.5874C174.296 35.9296 185.027 10.7548 175.273 3.01553C174.509 2.39766 173.677 1.88028 172.797 1.47536L172.786 1.47866ZM147.504 39.708C128.936 51.2866 148.918 73.1036 158.762 48.6572L147.505 39.7136L147.504 39.708Z" fill="#FFBF00" fill-opacity="0.3"/>
</svg>
