<svg width="97" height="99" viewBox="0 0 97 99" fill="none" xmlns="http://www.w3.org/2000/svg">
<path d="M22.0864 80.4375C22.0864 80.4375 36.1415 74.25 40.1572 70.125C44.1729 66 32.1257 66 32.1257 45.375C32.1257 24.75 48.1887 24.75 48.1887 24.75C48.1887 24.75 64.2516 24.75 64.2516 45.375C64.2516 66 52.2044 66 56.2201 70.125C60.2358 74.25 74.2909 80.4375 74.2909 80.4375" stroke="black" stroke-linecap="round"/>
<path fill-rule="evenodd" clip-rule="evenodd" d="M48.1885 90.75C70.3668 90.75 88.3458 72.2817 88.3458 49.5C88.3458 26.7183 70.3668 8.25 48.1885 8.25C26.0103 8.25 8.03125 26.7183 8.03125 49.5C8.03125 72.2817 26.0103 90.75 48.1885 90.75Z" stroke="black"/>
</svg>
