<svg width="97" height="99" viewBox="0 0 97 99" fill="none" xmlns="http://www.w3.org/2000/svg">
<path d="M22.1436 80.429C22.1436 80.429 36.2349 74.2421 40.261 70.1176C44.2871 65.993 32.2088 65.993 32.2088 45.3702C32.2088 24.7474 48.3132 24.7474 48.3132 24.7474C48.3132 24.7474 64.4176 24.7474 64.4176 45.3702C64.4176 65.993 52.3393 65.993 56.3654 70.1176C60.3915 74.2421 74.4828 80.429 74.4828 80.429" stroke="black" stroke-linecap="round"/>
<path fill-rule="evenodd" clip-rule="evenodd" d="M48.3132 90.7404C70.5487 90.7404 88.5742 72.2741 88.5742 49.4948C88.5742 26.7154 70.5487 8.24915 48.3132 8.24915C26.0777 8.24915 8.05225 26.7154 8.05225 49.4948C8.05225 72.2741 26.0777 90.7404 48.3132 90.7404Z" stroke="black"/>
</svg>
