<svg width="97" height="99" viewBox="0 0 97 99" fill="none" xmlns="http://www.w3.org/2000/svg">
<path d="M22.0859 80.4375C22.0859 80.4375 36.141 74.25 40.1567 70.125C44.1724 66 32.1253 66 32.1253 45.375C32.1253 24.75 48.1882 24.75 48.1882 24.75C48.1882 24.75 64.2511 24.75 64.2511 45.375C64.2511 66 52.2039 66 56.2196 70.125C60.2354 74.25 74.2904 80.4375 74.2904 80.4375" stroke="black" stroke-linecap="round"/>
<path fill-rule="evenodd" clip-rule="evenodd" d="M48.1885 90.75C70.3668 90.75 88.3458 72.2817 88.3458 49.5C88.3458 26.7183 70.3668 8.25 48.1885 8.25C26.0103 8.25 8.03125 26.7183 8.03125 49.5C8.03125 72.2817 26.0103 90.75 48.1885 90.75Z" stroke="black"/>
</svg>
