<svg width="180" height="167" viewBox="0 0 180 167" fill="none" xmlns="http://www.w3.org/2000/svg">
<path d="M108.358 23.8642C114.265 30.5185 108.493 41.1143 99.5189 49.1556C94.0875 50.6331 89.8606 54.0313 86.7029 57.6642L75.0956 49.7036C77.4411 34.3554 95.9171 14.9265 106.138 21.9356C106.948 22.4835 107.693 23.1337 108.355 23.871L108.358 23.8642ZM83.4289 62.367L71.616 54.2594C53.4793 72.5733 79.6717 84.8957 83.4289 62.367ZM43.9409 116.053C43.2787 115.315 42.534 114.665 41.724 114.117C31.5033 107.108 13.0276 126.536 10.6822 141.885L22.2895 149.846C25.4472 146.213 29.675 142.82 35.1053 141.336C44.0796 133.296 49.8513 122.7 43.9445 116.045L43.9409 116.053ZM19.0108 154.556L7.19912 146.447C-10.9275 164.758 15.2602 177.083 19.0097 154.549L19.0108 154.556ZM115.641 97.285C108.752 91.7826 99.3693 98.9478 92.7271 109.199C91.8983 115.049 89.1397 119.842 86.0474 123.534L94.7695 134.893C108.991 130.824 125.376 109.41 117.699 99.4196C117.098 98.627 116.408 97.9134 115.644 97.2956L115.641 97.285ZM81.9532 127.468C61.1078 133.763 75.4641 159.956 90.8282 139.01L81.9532 127.468ZM172.786 1.47866C164.862 -2.08962 157.548 7.34225 153.553 19.0649C154.14 24.9909 152.596 30.3911 150.507 34.7941L161.57 43.5874C174.296 35.9296 185.027 10.7548 175.272 3.01553C174.508 2.39766 173.677 1.88028 172.797 1.47536L172.786 1.47866ZM147.503 39.708C128.935 51.2866 148.917 73.1036 158.762 48.6572L147.505 39.7136L147.503 39.708Z" fill="#FFBF00" fill-opacity="0.3"/>
</svg>
