<svg width="136" height="130" viewBox="0 0 136 130" fill="none" xmlns="http://www.w3.org/2000/svg">
<path d="M81.8073 18.0411C86.2876 23.2238 81.9099 31.4765 75.1029 37.7395C70.9832 38.8902 67.7772 41.537 65.3821 44.3665L56.5781 38.1663C58.3572 26.2122 72.3709 11.0799 80.1235 16.5389C80.7378 16.9657 81.3026 17.4721 81.8047 18.0464L81.8073 18.0411ZM62.8988 48.0293L53.9389 41.7147C40.1824 55.9786 60.049 65.576 62.8988 48.0293ZM32.9477 89.8427C32.4454 89.2685 31.8806 88.7621 31.2662 88.3354C23.5139 82.8762 9.50038 98.0081 7.7214 109.963L16.5254 116.163C18.9205 113.333 22.1272 110.691 26.246 109.535C33.0528 103.273 37.4306 95.0202 32.9504 89.8366L32.9477 89.8427ZM14.0385 119.831L5.07953 113.516C-8.66929 127.778 11.1938 137.376 14.0377 119.826L14.0385 119.831ZM87.3312 75.2255C82.106 70.9399 74.9894 76.5206 69.9514 84.5046C69.3227 89.0608 67.2304 92.7939 64.8849 95.6697L71.5005 104.517C82.2877 101.348 94.7154 84.6695 88.8922 76.888C88.4366 76.2707 87.913 75.7149 87.3336 75.2337L87.3312 75.2255ZM61.7795 98.7338C45.9686 103.637 56.8576 124.037 68.511 107.723L61.7795 98.7338ZM130.675 0.605929C124.664 -2.17325 119.117 5.17283 116.087 14.3031C116.532 18.9187 115.362 23.1246 113.777 26.5539L122.168 33.4026C131.82 27.4383 139.959 7.8307 132.561 1.80293C131.981 1.3217 131.351 0.918734 130.683 0.603358L130.675 0.605929ZM111.498 30.3812C97.4149 39.3992 112.571 56.3916 120.038 37.3513L111.499 30.3855L111.498 30.3812Z" fill="#FFBF00" fill-opacity="0.3"/>
</svg>
